<mxfile host="app.diagrams.net" agent="Mozilla/5.0 (Windows NT 10.0; Win64; x64) AppleWebKit/537.36 (KHTML, like Gecko) Chrome/138.0.0.0 Safari/537.36 Edg/138.0.0.0" version="28.0.7">
  <diagram name="Page-1" id="SAX3QMWb-zu-lCDHHCRd">
    <mxGraphModel dx="1419" dy="1890" grid="1" gridSize="10" guides="1" tooltips="1" connect="1" arrows="1" fold="1" page="1" pageScale="1" pageWidth="850" pageHeight="1100" math="0" shadow="0">
      <root>
        <mxCell id="0" />
        <mxCell id="1" parent="0" />
        <mxCell id="7tp3j4QF68E535isIezD-1" value="COURSE" style="rounded=0;whiteSpace=wrap;html=1;" parent="1" vertex="1">
          <mxGeometry x="520" y="170" width="120" height="60" as="geometry" />
        </mxCell>
        <mxCell id="7tp3j4QF68E535isIezD-2" value="STUDENT" style="rounded=0;whiteSpace=wrap;html=1;" parent="1" vertex="1">
          <mxGeometry x="160" y="170" width="120" height="60" as="geometry" />
        </mxCell>
        <mxCell id="7tp3j4QF68E535isIezD-4" value="register" style="rhombus;whiteSpace=wrap;html=1;" parent="1" vertex="1">
          <mxGeometry x="360" y="160" width="80" height="80" as="geometry" />
        </mxCell>
        <mxCell id="7tp3j4QF68E535isIezD-5" value="" style="endArrow=ERzeroToMany;html=1;rounded=0;exitX=1;exitY=0.5;exitDx=0;exitDy=0;endFill=0;" parent="1" edge="1">
          <mxGeometry width="50" height="50" relative="1" as="geometry">
            <mxPoint x="440" y="199.83" as="sourcePoint" />
            <mxPoint x="520" y="199.83" as="targetPoint" />
          </mxGeometry>
        </mxCell>
        <mxCell id="7tp3j4QF68E535isIezD-6" value="" style="endArrow=none;html=1;rounded=0;exitX=1;exitY=0.5;exitDx=0;exitDy=0;startArrow=ERzeroToMany;startFill=0;" parent="1" edge="1">
          <mxGeometry width="50" height="50" relative="1" as="geometry">
            <mxPoint x="280" y="199.86" as="sourcePoint" />
            <mxPoint x="360" y="199.86" as="targetPoint" />
          </mxGeometry>
        </mxCell>
        <mxCell id="7tp3j4QF68E535isIezD-10" value="BOOK COPY" style="rounded=0;whiteSpace=wrap;html=1;" parent="1" vertex="1">
          <mxGeometry x="520" y="290" width="120" height="60" as="geometry" />
        </mxCell>
        <mxCell id="7tp3j4QF68E535isIezD-11" value="BOOK" style="rounded=0;whiteSpace=wrap;html=1;" parent="1" vertex="1">
          <mxGeometry x="160" y="290" width="120" height="60" as="geometry" />
        </mxCell>
        <mxCell id="7tp3j4QF68E535isIezD-12" value="have" style="rhombus;whiteSpace=wrap;html=1;" parent="1" vertex="1">
          <mxGeometry x="360" y="280" width="80" height="80" as="geometry" />
        </mxCell>
        <mxCell id="7tp3j4QF68E535isIezD-13" value="" style="endArrow=ERzeroToMany;html=1;rounded=0;exitX=1;exitY=0.5;exitDx=0;exitDy=0;endFill=0;" parent="1" edge="1">
          <mxGeometry width="50" height="50" relative="1" as="geometry">
            <mxPoint x="440" y="319.83000000000004" as="sourcePoint" />
            <mxPoint x="520" y="320" as="targetPoint" />
          </mxGeometry>
        </mxCell>
        <mxCell id="7tp3j4QF68E535isIezD-14" value="" style="endArrow=none;html=1;rounded=0;exitX=1;exitY=0.5;exitDx=0;exitDy=0;startArrow=ERmandOne;startFill=0;" parent="1" edge="1">
          <mxGeometry width="50" height="50" relative="1" as="geometry">
            <mxPoint x="280" y="319.86" as="sourcePoint" />
            <mxPoint x="360" y="319.86" as="targetPoint" />
          </mxGeometry>
        </mxCell>
        <mxCell id="7tp3j4QF68E535isIezD-22" value="SECTION" style="rounded=0;whiteSpace=wrap;html=1;" parent="1" vertex="1">
          <mxGeometry x="520" y="410" width="120" height="60" as="geometry" />
        </mxCell>
        <mxCell id="7tp3j4QF68E535isIezD-23" value="COURSE" style="rounded=0;whiteSpace=wrap;html=1;" parent="1" vertex="1">
          <mxGeometry x="160" y="410" width="120" height="60" as="geometry" />
        </mxCell>
        <mxCell id="7tp3j4QF68E535isIezD-24" value="have" style="rhombus;whiteSpace=wrap;html=1;" parent="1" vertex="1">
          <mxGeometry x="360" y="400" width="80" height="80" as="geometry" />
        </mxCell>
        <mxCell id="7tp3j4QF68E535isIezD-25" value="" style="endArrow=ERoneToMany;html=1;rounded=0;exitX=1;exitY=0.5;exitDx=0;exitDy=0;endFill=0;" parent="1" edge="1">
          <mxGeometry width="50" height="50" relative="1" as="geometry">
            <mxPoint x="440" y="439.83000000000004" as="sourcePoint" />
            <mxPoint x="520" y="439.83000000000004" as="targetPoint" />
          </mxGeometry>
        </mxCell>
        <mxCell id="7tp3j4QF68E535isIezD-26" value="" style="endArrow=none;html=1;rounded=0;exitX=1;exitY=0.5;exitDx=0;exitDy=0;startArrow=ERmandOne;startFill=0;" parent="1" edge="1">
          <mxGeometry width="50" height="50" relative="1" as="geometry">
            <mxPoint x="280" y="439.86" as="sourcePoint" />
            <mxPoint x="360" y="439.86" as="targetPoint" />
          </mxGeometry>
        </mxCell>
        <mxCell id="7tp3j4QF68E535isIezD-32" value="ROOM" style="rounded=0;whiteSpace=wrap;html=1;" parent="1" vertex="1">
          <mxGeometry x="520" y="530" width="120" height="60" as="geometry" />
        </mxCell>
        <mxCell id="7tp3j4QF68E535isIezD-33" value="SECTION" style="rounded=0;whiteSpace=wrap;html=1;" parent="1" vertex="1">
          <mxGeometry x="160" y="530" width="120" height="60" as="geometry" />
        </mxCell>
        <mxCell id="7tp3j4QF68E535isIezD-34" value="scheduled" style="rhombus;whiteSpace=wrap;html=1;" parent="1" vertex="1">
          <mxGeometry x="360" y="520" width="80" height="80" as="geometry" />
        </mxCell>
        <mxCell id="7tp3j4QF68E535isIezD-35" value="" style="endArrow=ERmandOne;html=1;rounded=0;exitX=1;exitY=0.5;exitDx=0;exitDy=0;endFill=0;" parent="1" edge="1">
          <mxGeometry width="50" height="50" relative="1" as="geometry">
            <mxPoint x="440" y="559.83" as="sourcePoint" />
            <mxPoint x="520" y="559.83" as="targetPoint" />
          </mxGeometry>
        </mxCell>
        <mxCell id="7tp3j4QF68E535isIezD-36" value="" style="endArrow=none;html=1;rounded=0;exitX=1;exitY=0.5;exitDx=0;exitDy=0;startArrow=ERmandOne;startFill=0;" parent="1" edge="1">
          <mxGeometry width="50" height="50" relative="1" as="geometry">
            <mxPoint x="280" y="559.86" as="sourcePoint" />
            <mxPoint x="360" y="559.86" as="targetPoint" />
          </mxGeometry>
        </mxCell>
        <mxCell id="7tp3j4QF68E535isIezD-37" value="COURSE" style="rounded=0;whiteSpace=wrap;html=1;" parent="1" vertex="1">
          <mxGeometry x="520" y="650" width="120" height="60" as="geometry" />
        </mxCell>
        <mxCell id="7tp3j4QF68E535isIezD-38" value="INSTRUCTOR" style="rounded=0;whiteSpace=wrap;html=1;" parent="1" vertex="1">
          <mxGeometry x="160" y="650" width="120" height="60" as="geometry" />
        </mxCell>
        <mxCell id="7tp3j4QF68E535isIezD-39" value="have" style="rhombus;whiteSpace=wrap;html=1;" parent="1" vertex="1">
          <mxGeometry x="360" y="640" width="80" height="80" as="geometry" />
        </mxCell>
        <mxCell id="7tp3j4QF68E535isIezD-40" value="" style="endArrow=ERzeroToMany;html=1;rounded=0;exitX=1;exitY=0.5;exitDx=0;exitDy=0;endFill=0;" parent="1" edge="1">
          <mxGeometry width="50" height="50" relative="1" as="geometry">
            <mxPoint x="440" y="679.83" as="sourcePoint" />
            <mxPoint x="520" y="679.83" as="targetPoint" />
          </mxGeometry>
        </mxCell>
        <mxCell id="7tp3j4QF68E535isIezD-41" value="" style="endArrow=none;html=1;rounded=0;exitX=1;exitY=0.5;exitDx=0;exitDy=0;startArrow=ERoneToMany;startFill=0;" parent="1" edge="1">
          <mxGeometry width="50" height="50" relative="1" as="geometry">
            <mxPoint x="280" y="679.86" as="sourcePoint" />
            <mxPoint x="360" y="679.86" as="targetPoint" />
          </mxGeometry>
        </mxCell>
        <mxCell id="nEEwgD9YWX4Y2Av0-MTW-1" value="" style="rounded=0;whiteSpace=wrap;html=1;" vertex="1" parent="1">
          <mxGeometry x="1280" y="110" width="120" height="60" as="geometry" />
        </mxCell>
        <mxCell id="nEEwgD9YWX4Y2Av0-MTW-2" value="BOOK" style="rounded=0;whiteSpace=wrap;html=1;" vertex="1" parent="1">
          <mxGeometry x="920" y="110" width="120" height="60" as="geometry" />
        </mxCell>
        <mxCell id="nEEwgD9YWX4Y2Av0-MTW-4" value="" style="endArrow=ERoneToMany;html=1;rounded=0;endFill=0;entryX=0;entryY=0.5;entryDx=0;entryDy=0;" edge="1" parent="1" target="nEEwgD9YWX4Y2Av0-MTW-1">
          <mxGeometry width="50" height="50" relative="1" as="geometry">
            <mxPoint x="1200" y="140" as="sourcePoint" />
            <mxPoint x="1230" y="160" as="targetPoint" />
          </mxGeometry>
        </mxCell>
        <mxCell id="nEEwgD9YWX4Y2Av0-MTW-5" value="" style="endArrow=none;html=1;rounded=0;exitX=1;exitY=0.5;exitDx=0;exitDy=0;startArrow=ERzeroToMany;startFill=0;entryX=0;entryY=0.5;entryDx=0;entryDy=0;" edge="1" parent="1" source="nEEwgD9YWX4Y2Av0-MTW-2" target="nEEwgD9YWX4Y2Av0-MTW-11">
          <mxGeometry width="50" height="50" relative="1" as="geometry">
            <mxPoint x="1010" y="139.8" as="sourcePoint" />
            <mxPoint x="1080" y="140" as="targetPoint" />
          </mxGeometry>
        </mxCell>
        <mxCell id="nEEwgD9YWX4Y2Av0-MTW-6" value="" style="ellipse;whiteSpace=wrap;html=1;" vertex="1" parent="1">
          <mxGeometry x="1050" width="80" height="40" as="geometry" />
        </mxCell>
        <mxCell id="nEEwgD9YWX4Y2Av0-MTW-9" value="" style="rounded=0;whiteSpace=wrap;html=1;" vertex="1" parent="1">
          <mxGeometry x="920" y="340" width="120" height="60" as="geometry" />
        </mxCell>
        <mxCell id="nEEwgD9YWX4Y2Av0-MTW-10" value="CUSTOMER" style="rounded=0;whiteSpace=wrap;html=1;" vertex="1" parent="1">
          <mxGeometry x="1280" y="340" width="120" height="60" as="geometry" />
        </mxCell>
        <mxCell id="nEEwgD9YWX4Y2Av0-MTW-11" value="" style="rhombus;whiteSpace=wrap;html=1;" vertex="1" parent="1">
          <mxGeometry x="1120" y="100" width="80" height="80" as="geometry" />
        </mxCell>
        <mxCell id="nEEwgD9YWX4Y2Av0-MTW-12" value="price" style="ellipse;whiteSpace=wrap;html=1;" vertex="1" parent="1">
          <mxGeometry x="1055" y="5" width="70" height="30" as="geometry" />
        </mxCell>
        <mxCell id="nEEwgD9YWX4Y2Av0-MTW-14" value="stock&amp;nbsp;&lt;div&gt;quantity&lt;/div&gt;" style="ellipse;whiteSpace=wrap;html=1;" vertex="1" parent="1">
          <mxGeometry x="890" y="-50" width="80" height="40" as="geometry" />
        </mxCell>
        <mxCell id="nEEwgD9YWX4Y2Av0-MTW-15" value="placed" style="rhombus;whiteSpace=wrap;html=1;" vertex="1" parent="1">
          <mxGeometry x="1125" y="330" width="80" height="80" as="geometry" />
        </mxCell>
        <mxCell id="nEEwgD9YWX4Y2Av0-MTW-16" value="contain" style="rhombus;whiteSpace=wrap;html=1;" vertex="1" parent="1">
          <mxGeometry x="940" y="210" width="80" height="80" as="geometry" />
        </mxCell>
        <mxCell id="nEEwgD9YWX4Y2Av0-MTW-17" value="" style="endArrow=none;html=1;rounded=0;exitX=1;exitY=0.5;exitDx=0;exitDy=0;startArrow=ERzeroToMany;startFill=0;entryX=0;entryY=0.5;entryDx=0;entryDy=0;" edge="1" parent="1" source="nEEwgD9YWX4Y2Av0-MTW-9" target="nEEwgD9YWX4Y2Av0-MTW-15">
          <mxGeometry width="50" height="50" relative="1" as="geometry">
            <mxPoint x="900" y="439.76" as="sourcePoint" />
            <mxPoint x="1120" y="400" as="targetPoint" />
          </mxGeometry>
        </mxCell>
        <mxCell id="nEEwgD9YWX4Y2Av0-MTW-18" value="" style="endArrow=none;html=1;rounded=0;exitX=0;exitY=0.5;exitDx=0;exitDy=0;startArrow=ERmandOne;startFill=0;entryX=1;entryY=0.5;entryDx=0;entryDy=0;" edge="1" parent="1" source="nEEwgD9YWX4Y2Av0-MTW-10" target="nEEwgD9YWX4Y2Av0-MTW-15">
          <mxGeometry width="50" height="50" relative="1" as="geometry">
            <mxPoint x="1040" y="500" as="sourcePoint" />
            <mxPoint x="1040" y="550" as="targetPoint" />
          </mxGeometry>
        </mxCell>
        <mxCell id="nEEwgD9YWX4Y2Av0-MTW-19" value="" style="endArrow=none;html=1;rounded=0;exitX=0.5;exitY=1;exitDx=0;exitDy=0;startArrow=ERoneToMany;startFill=0;entryX=0.5;entryY=0;entryDx=0;entryDy=0;" edge="1" parent="1" source="nEEwgD9YWX4Y2Av0-MTW-2" target="nEEwgD9YWX4Y2Av0-MTW-16">
          <mxGeometry width="50" height="50" relative="1" as="geometry">
            <mxPoint x="1039.52" y="175" as="sourcePoint" />
            <mxPoint x="1039.52" y="225" as="targetPoint" />
          </mxGeometry>
        </mxCell>
        <mxCell id="nEEwgD9YWX4Y2Av0-MTW-20" value="&lt;u&gt;ID&lt;/u&gt;" style="ellipse;whiteSpace=wrap;html=1;" vertex="1" parent="1">
          <mxGeometry x="1440" y="260" width="80" height="40" as="geometry" />
        </mxCell>
        <mxCell id="nEEwgD9YWX4Y2Av0-MTW-21" value="" style="endArrow=none;html=1;rounded=0;exitX=0.5;exitY=0;exitDx=0;exitDy=0;startArrow=ERzeroToMany;startFill=0;entryX=0.5;entryY=1;entryDx=0;entryDy=0;" edge="1" parent="1" source="nEEwgD9YWX4Y2Av0-MTW-9" target="nEEwgD9YWX4Y2Av0-MTW-16">
          <mxGeometry width="50" height="50" relative="1" as="geometry">
            <mxPoint x="1050" y="210" as="sourcePoint" />
            <mxPoint x="1050" y="250" as="targetPoint" />
          </mxGeometry>
        </mxCell>
        <mxCell id="nEEwgD9YWX4Y2Av0-MTW-22" value="&lt;u&gt;isbn&lt;/u&gt;" style="ellipse;whiteSpace=wrap;html=1;" vertex="1" parent="1">
          <mxGeometry x="840" width="80" height="40" as="geometry" />
        </mxCell>
        <mxCell id="nEEwgD9YWX4Y2Av0-MTW-23" value="&lt;u&gt;title&lt;/u&gt;" style="ellipse;whiteSpace=wrap;html=1;" vertex="1" parent="1">
          <mxGeometry x="990" y="-50" width="80" height="40" as="geometry" />
        </mxCell>
        <mxCell id="nEEwgD9YWX4Y2Av0-MTW-24" value="" style="endArrow=none;html=1;rounded=0;entryX=0;entryY=1;entryDx=0;entryDy=0;exitX=0.5;exitY=0;exitDx=0;exitDy=0;" edge="1" parent="1" source="nEEwgD9YWX4Y2Av0-MTW-2" target="nEEwgD9YWX4Y2Av0-MTW-6">
          <mxGeometry width="50" height="50" relative="1" as="geometry">
            <mxPoint x="960" y="90" as="sourcePoint" />
            <mxPoint x="1010" y="40" as="targetPoint" />
          </mxGeometry>
        </mxCell>
        <mxCell id="nEEwgD9YWX4Y2Av0-MTW-25" value="" style="endArrow=none;html=1;rounded=0;entryX=0.5;entryY=1;entryDx=0;entryDy=0;exitX=0.5;exitY=0;exitDx=0;exitDy=0;" edge="1" parent="1" source="nEEwgD9YWX4Y2Av0-MTW-2" target="nEEwgD9YWX4Y2Av0-MTW-23">
          <mxGeometry width="50" height="50" relative="1" as="geometry">
            <mxPoint x="1030" y="136" as="sourcePoint" />
            <mxPoint x="1112" y="60" as="targetPoint" />
          </mxGeometry>
        </mxCell>
        <mxCell id="nEEwgD9YWX4Y2Av0-MTW-26" value="" style="endArrow=none;html=1;rounded=0;entryX=0.5;entryY=1;entryDx=0;entryDy=0;exitX=0.5;exitY=0;exitDx=0;exitDy=0;" edge="1" parent="1" source="nEEwgD9YWX4Y2Av0-MTW-2" target="nEEwgD9YWX4Y2Av0-MTW-14">
          <mxGeometry width="50" height="50" relative="1" as="geometry">
            <mxPoint x="910" y="120" as="sourcePoint" />
            <mxPoint x="960" as="targetPoint" />
          </mxGeometry>
        </mxCell>
        <mxCell id="nEEwgD9YWX4Y2Av0-MTW-27" value="" style="endArrow=none;html=1;rounded=0;entryX=1;entryY=1;entryDx=0;entryDy=0;exitX=0.5;exitY=0;exitDx=0;exitDy=0;" edge="1" parent="1" source="nEEwgD9YWX4Y2Av0-MTW-2" target="nEEwgD9YWX4Y2Av0-MTW-22">
          <mxGeometry width="50" height="50" relative="1" as="geometry">
            <mxPoint x="830" y="170" as="sourcePoint" />
            <mxPoint x="880" y="50" as="targetPoint" />
          </mxGeometry>
        </mxCell>
        <mxCell id="nEEwgD9YWX4Y2Av0-MTW-28" value="name" style="ellipse;whiteSpace=wrap;html=1;" vertex="1" parent="1">
          <mxGeometry x="1440" y="440" width="80" height="40" as="geometry" />
        </mxCell>
        <mxCell id="nEEwgD9YWX4Y2Av0-MTW-29" value="" style="ellipse;whiteSpace=wrap;html=1;" vertex="1" parent="1">
          <mxGeometry x="1475" y="320" width="80" height="40" as="geometry" />
        </mxCell>
        <mxCell id="nEEwgD9YWX4Y2Av0-MTW-32" value="" style="ellipse;whiteSpace=wrap;html=1;" vertex="1" parent="1">
          <mxGeometry x="1475" y="380" width="80" height="40" as="geometry" />
        </mxCell>
        <mxCell id="nEEwgD9YWX4Y2Av0-MTW-30" value="phone_No." style="ellipse;whiteSpace=wrap;html=1;" vertex="1" parent="1">
          <mxGeometry x="1480" y="385" width="70" height="30" as="geometry" />
        </mxCell>
        <mxCell id="nEEwgD9YWX4Y2Av0-MTW-31" value="ORDER" style="rhombus;whiteSpace=wrap;html=1;" vertex="1" parent="1">
          <mxGeometry x="920" y="340" width="120" height="60" as="geometry" />
        </mxCell>
        <mxCell id="nEEwgD9YWX4Y2Av0-MTW-33" value="AUTHORS" style="rounded=0;whiteSpace=wrap;html=1;" vertex="1" parent="1">
          <mxGeometry x="1285" y="115" width="110" height="50" as="geometry" />
        </mxCell>
        <mxCell id="nEEwgD9YWX4Y2Av0-MTW-34" value="" style="endArrow=none;html=1;rounded=0;entryX=0;entryY=1;entryDx=0;entryDy=0;exitX=1;exitY=0.5;exitDx=0;exitDy=0;" edge="1" parent="1" source="nEEwgD9YWX4Y2Av0-MTW-10" target="nEEwgD9YWX4Y2Av0-MTW-20">
          <mxGeometry width="50" height="50" relative="1" as="geometry">
            <mxPoint x="1310" y="310" as="sourcePoint" />
            <mxPoint x="1360" y="260" as="targetPoint" />
          </mxGeometry>
        </mxCell>
        <mxCell id="nEEwgD9YWX4Y2Av0-MTW-35" value="" style="endArrow=none;html=1;rounded=0;entryX=1;entryY=0.5;entryDx=0;entryDy=0;exitX=0;exitY=0;exitDx=0;exitDy=0;" edge="1" parent="1" source="nEEwgD9YWX4Y2Av0-MTW-28" target="nEEwgD9YWX4Y2Av0-MTW-10">
          <mxGeometry width="50" height="50" relative="1" as="geometry">
            <mxPoint x="1440" y="436" as="sourcePoint" />
            <mxPoint x="1492" y="360" as="targetPoint" />
          </mxGeometry>
        </mxCell>
        <mxCell id="nEEwgD9YWX4Y2Av0-MTW-36" value="" style="endArrow=none;html=1;rounded=0;entryX=1;entryY=0.5;entryDx=0;entryDy=0;exitX=0;exitY=0.5;exitDx=0;exitDy=0;" edge="1" parent="1" source="nEEwgD9YWX4Y2Av0-MTW-32" target="nEEwgD9YWX4Y2Av0-MTW-10">
          <mxGeometry width="50" height="50" relative="1" as="geometry">
            <mxPoint x="1475" y="440" as="sourcePoint" />
            <mxPoint x="1423" y="364" as="targetPoint" />
          </mxGeometry>
        </mxCell>
        <mxCell id="nEEwgD9YWX4Y2Av0-MTW-37" value="" style="endArrow=none;html=1;rounded=0;entryX=1;entryY=0.5;entryDx=0;entryDy=0;exitX=0;exitY=0.5;exitDx=0;exitDy=0;" edge="1" parent="1" source="nEEwgD9YWX4Y2Av0-MTW-29" target="nEEwgD9YWX4Y2Av0-MTW-10">
          <mxGeometry width="50" height="50" relative="1" as="geometry">
            <mxPoint x="1485" y="385" as="sourcePoint" />
            <mxPoint x="1410" y="355" as="targetPoint" />
          </mxGeometry>
        </mxCell>
        <mxCell id="nEEwgD9YWX4Y2Av0-MTW-38" value="have" style="rhombus;whiteSpace=wrap;html=1;" vertex="1" parent="1">
          <mxGeometry x="1125" y="105" width="70" height="70" as="geometry" />
        </mxCell>
        <mxCell id="nEEwgD9YWX4Y2Av0-MTW-39" value="order date" style="ellipse;whiteSpace=wrap;html=1;" vertex="1" parent="1">
          <mxGeometry x="1040" y="640" width="80" height="40" as="geometry" />
        </mxCell>
        <mxCell id="nEEwgD9YWX4Y2Av0-MTW-40" value="selling price at&amp;nbsp;&lt;div&gt;the time of the order&lt;/div&gt;" style="ellipse;whiteSpace=wrap;html=1;" vertex="1" parent="1">
          <mxGeometry x="915" y="680" width="130" height="70" as="geometry" />
        </mxCell>
        <mxCell id="nEEwgD9YWX4Y2Av0-MTW-41" value="" style="ellipse;whiteSpace=wrap;html=1;" vertex="1" parent="1">
          <mxGeometry x="835" y="640" width="80" height="40" as="geometry" />
        </mxCell>
        <mxCell id="nEEwgD9YWX4Y2Av0-MTW-42" value="" style="endArrow=none;html=1;rounded=0;entryX=0;entryY=0.5;entryDx=0;entryDy=0;exitX=0.5;exitY=1;exitDx=0;exitDy=0;" edge="1" parent="1" source="nEEwgD9YWX4Y2Av0-MTW-47" target="nEEwgD9YWX4Y2Av0-MTW-39">
          <mxGeometry width="50" height="50" relative="1" as="geometry">
            <mxPoint x="890" y="340" as="sourcePoint" />
            <mxPoint x="970" y="130" as="targetPoint" />
          </mxGeometry>
        </mxCell>
        <mxCell id="nEEwgD9YWX4Y2Av0-MTW-43" value="" style="endArrow=none;html=1;rounded=0;exitX=1;exitY=0.5;exitDx=0;exitDy=0;entryX=0.5;entryY=1;entryDx=0;entryDy=0;" edge="1" parent="1" source="nEEwgD9YWX4Y2Av0-MTW-41" target="nEEwgD9YWX4Y2Av0-MTW-47">
          <mxGeometry width="50" height="50" relative="1" as="geometry">
            <mxPoint x="990" y="490" as="sourcePoint" />
            <mxPoint x="900" y="480" as="targetPoint" />
          </mxGeometry>
        </mxCell>
        <mxCell id="nEEwgD9YWX4Y2Av0-MTW-44" value="" style="endArrow=none;html=1;rounded=0;exitX=0.5;exitY=0;exitDx=0;exitDy=0;entryX=0.5;entryY=1;entryDx=0;entryDy=0;" edge="1" parent="1" source="nEEwgD9YWX4Y2Av0-MTW-40" target="nEEwgD9YWX4Y2Av0-MTW-47">
          <mxGeometry width="50" height="50" relative="1" as="geometry">
            <mxPoint x="1020" y="540" as="sourcePoint" />
            <mxPoint x="900" y="410" as="targetPoint" />
          </mxGeometry>
        </mxCell>
        <mxCell id="nEEwgD9YWX4Y2Av0-MTW-46" value="email" style="ellipse;whiteSpace=wrap;html=1;" vertex="1" parent="1">
          <mxGeometry x="1480" y="325" width="70" height="30" as="geometry" />
        </mxCell>
        <mxCell id="nEEwgD9YWX4Y2Av0-MTW-47" value="" style="rounded=0;whiteSpace=wrap;html=1;" vertex="1" parent="1">
          <mxGeometry x="920" y="560" width="120" height="60" as="geometry" />
        </mxCell>
        <mxCell id="nEEwgD9YWX4Y2Av0-MTW-49" value="ORDER DETAIL" style="rounded=0;whiteSpace=wrap;html=1;" vertex="1" parent="1">
          <mxGeometry x="925" y="565" width="110" height="50" as="geometry" />
        </mxCell>
        <mxCell id="nEEwgD9YWX4Y2Av0-MTW-50" value="" style="rhombus;whiteSpace=wrap;html=1;" vertex="1" parent="1">
          <mxGeometry x="940" y="440" width="80" height="80" as="geometry" />
        </mxCell>
        <mxCell id="nEEwgD9YWX4Y2Av0-MTW-51" value="have" style="rhombus;whiteSpace=wrap;html=1;" vertex="1" parent="1">
          <mxGeometry x="945" y="445" width="70" height="70" as="geometry" />
        </mxCell>
        <mxCell id="nEEwgD9YWX4Y2Av0-MTW-52" value="quantity" style="ellipse;whiteSpace=wrap;html=1;" vertex="1" parent="1">
          <mxGeometry x="840" y="645" width="70" height="30" as="geometry" />
        </mxCell>
        <mxCell id="nEEwgD9YWX4Y2Av0-MTW-53" value="" style="endArrow=ERmandOne;html=1;rounded=0;exitX=0.5;exitY=0;exitDx=0;exitDy=0;startArrow=none;startFill=0;entryX=0.5;entryY=1;entryDx=0;entryDy=0;endFill=0;" edge="1" parent="1" source="nEEwgD9YWX4Y2Av0-MTW-50" target="nEEwgD9YWX4Y2Av0-MTW-31">
          <mxGeometry width="50" height="50" relative="1" as="geometry">
            <mxPoint x="1047.5" y="500" as="sourcePoint" />
            <mxPoint x="1132.5" y="500" as="targetPoint" />
          </mxGeometry>
        </mxCell>
        <mxCell id="nEEwgD9YWX4Y2Av0-MTW-54" value="" style="endArrow=ERmandOne;html=1;rounded=0;exitX=0.5;exitY=1;exitDx=0;exitDy=0;startArrow=none;startFill=0;entryX=0.5;entryY=0;entryDx=0;entryDy=0;endFill=0;" edge="1" parent="1" source="nEEwgD9YWX4Y2Av0-MTW-50" target="nEEwgD9YWX4Y2Av0-MTW-47">
          <mxGeometry width="50" height="50" relative="1" as="geometry">
            <mxPoint x="1050" y="490" as="sourcePoint" />
            <mxPoint x="1050" y="450" as="targetPoint" />
          </mxGeometry>
        </mxCell>
        <mxCell id="nEEwgD9YWX4Y2Av0-MTW-55" value="CUSTOMER" style="rounded=0;whiteSpace=wrap;html=1;" vertex="1" parent="1">
          <mxGeometry x="1920" y="200" width="120" height="60" as="geometry" />
        </mxCell>
        <mxCell id="nEEwgD9YWX4Y2Av0-MTW-56" value="ITEM" style="rounded=0;whiteSpace=wrap;html=1;" vertex="1" parent="1">
          <mxGeometry x="2280" y="200" width="120" height="60" as="geometry" />
        </mxCell>
        <mxCell id="nEEwgD9YWX4Y2Av0-MTW-57" value="ship" style="rhombus;whiteSpace=wrap;html=1;" vertex="1" parent="1">
          <mxGeometry x="2120" y="290" width="80" height="80" as="geometry" />
        </mxCell>
        <mxCell id="nEEwgD9YWX4Y2Av0-MTW-59" value="" style="rounded=0;whiteSpace=wrap;html=1;" vertex="1" parent="1">
          <mxGeometry x="2100" y="50" width="120" height="60" as="geometry" />
        </mxCell>
        <mxCell id="nEEwgD9YWX4Y2Av0-MTW-60" value="" style="ellipse;whiteSpace=wrap;html=1;" vertex="1" parent="1">
          <mxGeometry x="1750" y="350" width="120" height="60" as="geometry" />
        </mxCell>
        <mxCell id="nEEwgD9YWX4Y2Av0-MTW-61" value="" style="endArrow=none;html=1;rounded=0;exitX=0.5;exitY=0;exitDx=0;exitDy=0;startArrow=ERzeroToOne;startFill=0;" edge="1" parent="1" source="nEEwgD9YWX4Y2Av0-MTW-55">
          <mxGeometry width="50" height="50" relative="1" as="geometry">
            <mxPoint x="1970" y="180" as="sourcePoint" />
            <mxPoint x="1980" y="120" as="targetPoint" />
          </mxGeometry>
        </mxCell>
        <mxCell id="nEEwgD9YWX4Y2Av0-MTW-62" value="" style="endArrow=ERzeroToMany;html=1;rounded=0;entryX=0.5;entryY=1;entryDx=0;entryDy=0;endFill=0;" edge="1" parent="1" target="nEEwgD9YWX4Y2Av0-MTW-55">
          <mxGeometry width="50" height="50" relative="1" as="geometry">
            <mxPoint x="1980" y="330" as="sourcePoint" />
            <mxPoint x="1979.76" y="275" as="targetPoint" />
          </mxGeometry>
        </mxCell>
        <mxCell id="nEEwgD9YWX4Y2Av0-MTW-63" value="" style="endArrow=none;html=1;rounded=0;exitX=0.5;exitY=0;exitDx=0;exitDy=0;startArrow=ERzeroToMany;startFill=0;" edge="1" parent="1" source="nEEwgD9YWX4Y2Av0-MTW-56">
          <mxGeometry width="50" height="50" relative="1" as="geometry">
            <mxPoint x="2350" y="190" as="sourcePoint" />
            <mxPoint x="2339.76" y="120" as="targetPoint" />
          </mxGeometry>
        </mxCell>
        <mxCell id="nEEwgD9YWX4Y2Av0-MTW-64" value="" style="endArrow=ERzeroToMany;html=1;rounded=0;entryX=0.5;entryY=1;entryDx=0;entryDy=0;startArrow=none;startFill=0;endFill=0;" edge="1" parent="1" target="nEEwgD9YWX4Y2Av0-MTW-56">
          <mxGeometry width="50" height="50" relative="1" as="geometry">
            <mxPoint x="2340" y="330" as="sourcePoint" />
            <mxPoint x="2339.76" y="280" as="targetPoint" />
          </mxGeometry>
        </mxCell>
        <mxCell id="nEEwgD9YWX4Y2Av0-MTW-67" value="" style="endArrow=none;html=1;rounded=0;exitX=0;exitY=0.5;exitDx=0;exitDy=0;" edge="1" parent="1">
          <mxGeometry width="50" height="50" relative="1" as="geometry">
            <mxPoint x="2120" y="330" as="sourcePoint" />
            <mxPoint x="1980" y="330" as="targetPoint" />
          </mxGeometry>
        </mxCell>
        <mxCell id="nEEwgD9YWX4Y2Av0-MTW-68" value="" style="endArrow=none;html=1;rounded=0;exitX=0;exitY=0.5;exitDx=0;exitDy=0;" edge="1" parent="1">
          <mxGeometry width="50" height="50" relative="1" as="geometry">
            <mxPoint x="2340" y="330" as="sourcePoint" />
            <mxPoint x="2200" y="330" as="targetPoint" />
          </mxGeometry>
        </mxCell>
        <mxCell id="nEEwgD9YWX4Y2Av0-MTW-69" value="use" style="rhombus;whiteSpace=wrap;html=1;" vertex="1" parent="1">
          <mxGeometry x="1940" y="40" width="80" height="80" as="geometry" />
        </mxCell>
        <mxCell id="nEEwgD9YWX4Y2Av0-MTW-70" value="track" style="rhombus;whiteSpace=wrap;html=1;" vertex="1" parent="1">
          <mxGeometry x="2300" y="40" width="80" height="80" as="geometry" />
        </mxCell>
        <mxCell id="nEEwgD9YWX4Y2Av0-MTW-71" value="" style="endArrow=ERzeroToOne;html=1;rounded=0;exitX=1;exitY=0.5;exitDx=0;exitDy=0;endFill=0;entryX=0;entryY=0.5;entryDx=0;entryDy=0;" edge="1" parent="1" source="nEEwgD9YWX4Y2Av0-MTW-69" target="nEEwgD9YWX4Y2Av0-MTW-59">
          <mxGeometry width="50" height="50" relative="1" as="geometry">
            <mxPoint x="2100" y="220" as="sourcePoint" />
            <mxPoint x="2060" y="110" as="targetPoint" />
          </mxGeometry>
        </mxCell>
        <mxCell id="nEEwgD9YWX4Y2Av0-MTW-72" value="" style="endArrow=none;html=1;rounded=0;exitX=1;exitY=0.5;exitDx=0;exitDy=0;entryX=0;entryY=0.5;entryDx=0;entryDy=0;startArrow=ERmandOne;startFill=0;" edge="1" parent="1" source="nEEwgD9YWX4Y2Av0-MTW-59" target="nEEwgD9YWX4Y2Av0-MTW-70">
          <mxGeometry width="50" height="50" relative="1" as="geometry">
            <mxPoint x="2300" y="110" as="sourcePoint" />
            <mxPoint x="2220" y="110" as="targetPoint" />
          </mxGeometry>
        </mxCell>
        <mxCell id="nEEwgD9YWX4Y2Av0-MTW-73" value="TRACKER" style="rhombus;whiteSpace=wrap;html=1;" vertex="1" parent="1">
          <mxGeometry x="2100" y="50" width="120" height="60" as="geometry" />
        </mxCell>
        <mxCell id="nEEwgD9YWX4Y2Av0-MTW-74" value="ITEM DETAIL" style="rounded=0;whiteSpace=wrap;html=1;" vertex="1" parent="1">
          <mxGeometry x="2100" y="-280" width="120" height="60" as="geometry" />
        </mxCell>
        <mxCell id="nEEwgD9YWX4Y2Av0-MTW-76" value="store" style="rhombus;whiteSpace=wrap;html=1;" vertex="1" parent="1">
          <mxGeometry x="2120" y="-120" width="80" height="80" as="geometry" />
        </mxCell>
        <mxCell id="nEEwgD9YWX4Y2Av0-MTW-77" value="" style="endArrow=ERmandOne;html=1;rounded=0;exitX=0.5;exitY=1;exitDx=0;exitDy=0;entryX=0.5;entryY=0;entryDx=0;entryDy=0;startArrow=none;startFill=0;endFill=0;" edge="1" parent="1" source="nEEwgD9YWX4Y2Av0-MTW-76" target="nEEwgD9YWX4Y2Av0-MTW-73">
          <mxGeometry width="50" height="50" relative="1" as="geometry">
            <mxPoint x="2190" y="-30" as="sourcePoint" />
            <mxPoint x="2270" y="-30" as="targetPoint" />
          </mxGeometry>
        </mxCell>
        <mxCell id="nEEwgD9YWX4Y2Av0-MTW-78" value="" style="endArrow=none;html=1;rounded=0;exitX=0.5;exitY=1;exitDx=0;exitDy=0;entryX=0.5;entryY=0;entryDx=0;entryDy=0;startArrow=ERzeroToMany;startFill=0;endFill=0;" edge="1" parent="1" source="nEEwgD9YWX4Y2Av0-MTW-74" target="nEEwgD9YWX4Y2Av0-MTW-76">
          <mxGeometry width="50" height="50" relative="1" as="geometry">
            <mxPoint x="2270" y="-110" as="sourcePoint" />
            <mxPoint x="2270" y="-60" as="targetPoint" />
          </mxGeometry>
        </mxCell>
        <mxCell id="nEEwgD9YWX4Y2Av0-MTW-80" value="Location" style="ellipse;whiteSpace=wrap;html=1;" vertex="1" parent="1">
          <mxGeometry x="2120" y="-370" width="80" height="40" as="geometry" />
        </mxCell>
        <mxCell id="nEEwgD9YWX4Y2Av0-MTW-81" value="truck" style="ellipse;whiteSpace=wrap;html=1;" vertex="1" parent="1">
          <mxGeometry x="2040" y="-450" width="80" height="40" as="geometry" />
        </mxCell>
        <mxCell id="nEEwgD9YWX4Y2Av0-MTW-82" value="plane" style="ellipse;whiteSpace=wrap;html=1;" vertex="1" parent="1">
          <mxGeometry x="2197.5" y="-450" width="80" height="40" as="geometry" />
        </mxCell>
        <mxCell id="nEEwgD9YWX4Y2Av0-MTW-83" value="" style="ellipse;whiteSpace=wrap;html=1;" vertex="1" parent="1">
          <mxGeometry x="2115" y="-500" width="90" height="50" as="geometry" />
        </mxCell>
        <mxCell id="nEEwgD9YWX4Y2Av0-MTW-84" value="Warehouse&lt;div&gt;Name&lt;/div&gt;" style="ellipse;whiteSpace=wrap;html=1;" vertex="1" parent="1">
          <mxGeometry x="2117.5" y="-497.5" width="85" height="45" as="geometry" />
        </mxCell>
        <mxCell id="nEEwgD9YWX4Y2Av0-MTW-87" value="" style="endArrow=none;html=1;rounded=0;entryX=0.5;entryY=1;entryDx=0;entryDy=0;exitX=0.5;exitY=0;exitDx=0;exitDy=0;" edge="1" parent="1" source="nEEwgD9YWX4Y2Av0-MTW-74" target="nEEwgD9YWX4Y2Av0-MTW-80">
          <mxGeometry width="50" height="50" relative="1" as="geometry">
            <mxPoint x="2220" y="-270" as="sourcePoint" />
            <mxPoint x="2270" y="-320" as="targetPoint" />
          </mxGeometry>
        </mxCell>
        <mxCell id="nEEwgD9YWX4Y2Av0-MTW-88" value="" style="endArrow=none;html=1;rounded=0;entryX=0.5;entryY=1;entryDx=0;entryDy=0;exitX=0.5;exitY=0;exitDx=0;exitDy=0;" edge="1" parent="1" source="nEEwgD9YWX4Y2Av0-MTW-80" target="nEEwgD9YWX4Y2Av0-MTW-81">
          <mxGeometry width="50" height="50" relative="1" as="geometry">
            <mxPoint x="2050" y="-340" as="sourcePoint" />
            <mxPoint x="2050" y="-390" as="targetPoint" />
          </mxGeometry>
        </mxCell>
        <mxCell id="nEEwgD9YWX4Y2Av0-MTW-89" value="" style="endArrow=none;html=1;rounded=0;entryX=0.5;entryY=1;entryDx=0;entryDy=0;exitX=0.5;exitY=0;exitDx=0;exitDy=0;" edge="1" parent="1" source="nEEwgD9YWX4Y2Av0-MTW-80" target="nEEwgD9YWX4Y2Av0-MTW-82">
          <mxGeometry width="50" height="50" relative="1" as="geometry">
            <mxPoint x="2290" y="-340" as="sourcePoint" />
            <mxPoint x="2210" y="-380" as="targetPoint" />
          </mxGeometry>
        </mxCell>
        <mxCell id="nEEwgD9YWX4Y2Av0-MTW-90" value="" style="endArrow=none;html=1;rounded=0;entryX=0.5;entryY=1;entryDx=0;entryDy=0;exitX=0.5;exitY=0;exitDx=0;exitDy=0;" edge="1" parent="1" source="nEEwgD9YWX4Y2Av0-MTW-80" target="nEEwgD9YWX4Y2Av0-MTW-83">
          <mxGeometry width="50" height="50" relative="1" as="geometry">
            <mxPoint x="2250" y="-340" as="sourcePoint" />
            <mxPoint x="2328" y="-380" as="targetPoint" />
          </mxGeometry>
        </mxCell>
        <mxCell id="nEEwgD9YWX4Y2Av0-MTW-91" value="History Location" style="rounded=0;whiteSpace=wrap;html=1;" vertex="1" parent="1">
          <mxGeometry x="1580" y="-280" width="120" height="60" as="geometry" />
        </mxCell>
        <mxCell id="nEEwgD9YWX4Y2Av0-MTW-92" value="Current&lt;div&gt;Location&lt;/div&gt;" style="rounded=0;whiteSpace=wrap;html=1;" vertex="1" parent="1">
          <mxGeometry x="1840" y="-280" width="120" height="60" as="geometry" />
        </mxCell>
      </root>
    </mxGraphModel>
  </diagram>
</mxfile>
